<?xml version="1.0" standalone="no"?>
<!DOCTYPE svg PUBLIC "-//W3C//DTD SVG 20010904//EN"
 "http://www.w3.org/TR/2001/REC-SVG-20010904/DTD/svg10.dtd">
<svg version="1.0" xmlns="http://www.w3.org/2000/svg"
 width="512.000000pt" height="512.000000pt" viewBox="0 0 512.000000 512.000000"
 preserveAspectRatio="xMidYMid meet">

<g transform="translate(0.000000,512.000000) scale(0.100000,-0.100000)"
fill="#000000" stroke="none">
<path d="M1025 5101 c-22 -10 -52 -31 -67 -47 -55 -59 -58 -79 -58 -379 l0
-275 -438 0 c-327 0 -441 -3 -450 -12 -17 -17 -17 -849 0 -866 8 -8 45 -12
100 -12 l88 0 0 -169 c0 -137 3 -171 15 -181 8 -7 20 -10 27 -7 7 3 114 84
238 181 l225 176 547 0 c531 0 548 1 558 19 14 27 14 825 0 852 -10 18 -24 19
-265 19 l-255 0 0 165 0 165 368 0 368 0 17 -35 c22 -46 80 -82 151 -96 36 -6
204 -9 459 -7 451 3 442 2 510 77 20 22 37 46 37 51 0 6 112 10 315 10 l315 0
0 -165 0 -165 -255 0 c-241 0 -255 -1 -265 -19 -14 -27 -14 -825 0 -852 10
-18 24 -19 265 -19 l255 0 0 -1560 0 -1560 -167 2 -168 3 -5 510 -5 510 33 70
c76 163 59 328 -58 565 -110 224 -144 367 -170 715 -11 160 -23 242 -45 316
-42 146 -147 256 -295 310 -43 16 -65 31 -82 56 -32 48 -100 90 -166 104 -147
30 -420 -41 -587 -152 -162 -108 -227 -247 -260 -549 -50 -447 -78 -564 -195
-800 -130 -262 -139 -461 -29 -615 28 -38 28 -42 19 -100 -5 -33 -10 -259 -10
-502 l0 -443 -175 0 -175 0 -2 1421 c-3 1359 -4 1422 -21 1433 -15 9 -21 7
-33 -8 -12 -17 -14 -219 -14 -1444 0 -962 3 -1430 10 -1443 11 -19 36 -19
1330 -19 1294 0 1319 0 1330 19 7 13 10 527 10 1590 l0 1571 130 0 130 0 -2
-1672 -3 -1673 -23 -33 c-13 -18 -38 -40 -55 -50 -30 -16 -126 -17 -1517 -17
-1391 0 -1487 1 -1517 17 -17 10 -42 32 -55 50 l-23 33 -5 1430 -5 1430 -25 0
-25 0 -3 -1425 c-3 -1591 -8 -1475 68 -1544 21 -19 56 -39 77 -45 53 -15 2973
-15 3026 0 49 13 105 63 128 114 18 38 19 116 19 1713 l0 1672 98 0 97 0 225
-176 c124 -97 231 -178 238 -181 7 -3 19 0 27 7 12 10 15 44 15 181 l0 169 88
0 c55 0 92 4 100 12 17 17 17 849 0 866 -9 9 -123 12 -450 12 l-438 0 0 278
c0 305 -4 326 -66 384 -66 62 40 58 -1596 58 -1432 0 -1495 -1 -1533 -19z
m939 -49 c3 -5 12 -55 21 -113 9 -57 18 -114 21 -126 l4 -23 -384 0 c-371 0
-386 -1 -396 -19 -6 -12 -10 -93 -10 -195 l0 -176 -131 0 -130 0 3 278 c3 271
3 278 26 310 26 35 51 52 97 63 42 10 873 11 879 1z m2113 -14 c17 -10 42 -32
55 -50 23 -32 23 -38 26 -310 l3 -278 -130 0 -131 0 0 176 c0 102 -4 183 -10
195 -10 18 -25 19 -340 19 -182 0 -330 3 -330 8 0 4 9 61 20 127 11 66 20 124
20 128 0 4 177 7 393 5 350 -3 395 -5 424 -20z m-2327 -1088 l0 -380 -536 0
-536 0 -199 -155 c-110 -85 -202 -155 -204 -155 -3 0 -5 64 -5 143 0 78 -4
147 -8 154 -5 8 -42 13 -102 15 l-95 3 -3 378 -2 377 845 0 845 0 0 -380z
m3308 3 l-3 -378 -95 -3 c-60 -2 -97 -7 -102 -15 -4 -7 -8 -76 -8 -154 0 -79
-2 -143 -5 -143 -2 0 -94 70 -204 155 l-199 155 -536 0 -536 0 0 380 0 380
845 0 845 0 -2 -377z m-2255 -903 c72 -34 123 -85 159 -158 l33 -66 3 -198 c3
-182 2 -204 -18 -264 -43 -129 -164 -247 -293 -288 -84 -26 -212 -19 -289 16
-104 48 -195 152 -239 274 -19 52 -22 81 -23 245 -1 173 0 188 19 209 29 33
70 47 184 64 56 9 123 25 148 36 64 28 136 83 164 126 23 33 26 35 66 30 23
-3 62 -15 86 -26z m-348 -1042 c96 -27 212 -17 318 27 16 7 17 -2 17 -97 0
-94 -3 -110 -27 -159 -38 -74 -93 -111 -173 -117 -77 -6 -138 16 -181 65 -49
57 -59 91 -59 209 0 97 1 106 18 99 9 -5 49 -17 87 -27z m-146 -243 c38 -88
133 -154 243 -170 109 -16 233 60 279 171 l23 55 61 -6 c105 -11 95 18 95
-269 l0 -253 -62 -31 c-124 -61 -204 -77 -388 -77 -181 0 -267 17 -380 73
l-55 28 -3 256 -2 256 62 10 c105 16 101 17 127 -43z m-283 -504 c-54 -78 -56
-94 -56 -497 l0 -374 -130 0 -130 0 0 468 c0 515 1 529 62 650 41 83 130 178
209 225 l64 37 3 -237 2 -236 -24 -36z m1124 477 c86 -49 172 -144 219 -240
22 -46 44 -110 50 -142 7 -37 11 -235 11 -513 l0 -453 -130 0 -129 0 -3 388
-3 387 -27 51 c-14 27 -34 56 -42 63 -14 12 -16 47 -16 252 0 132 3 239 8 239
4 0 32 -14 62 -32z"/>
<path d="M1135 4208 c-32 -17 -76 -61 -91 -90 -23 -44 -18 -127 11 -184 40
-80 205 -233 252 -234 47 0 212 150 254 233 47 92 29 196 -44 251 -50 38 -101
43 -164 16 l-50 -21 -34 20 c-37 23 -102 27 -134 9z"/>
<path d="M294 4095 c-4 -8 -4 -22 0 -30 5 -13 45 -15 283 -15 153 0 284 4 291
9 8 5 12 17 10 27 -3 18 -18 19 -291 22 -249 2 -288 0 -293 -13z"/>
<path d="M203 3853 c-23 -9 -15 -52 10 -58 12 -3 163 -4 336 -3 280 3 315 5
324 20 8 12 7 21 -2 32 -12 14 -53 16 -335 15 -176 0 -327 -3 -333 -6z"/>
<path d="M3605 4211 c-85 -52 -118 -149 -81 -236 11 -27 10 -31 -15 -53 -40
-33 -61 -95 -57 -172 3 -62 4 -65 28 -65 24 0 25 3 31 70 8 104 49 157 99 129
14 -7 50 -13 80 -13 30 0 66 6 80 13 50 28 91 -25 99 -129 6 -67 7 -70 31 -70
24 0 25 4 28 60 4 77 -10 126 -51 168 -30 32 -31 37 -20 63 15 36 16 104 2
141 -13 34 -55 80 -91 99 -39 20 -127 18 -163 -5z"/>
<path d="M4141 4104 c-34 -37 -61 -73 -61 -80 0 -7 9 -18 20 -24 16 -8 25 -5
54 21 l35 31 3 -154 3 -153 25 0 25 0 3 190 c1 105 0 200 -3 213 -9 38 -40 25
-104 -44z"/>
<path d="M4404 4151 c-107 -65 -107 -327 0 -392 65 -40 138 -11 178 69 33 67
33 187 -1 255 -26 54 -70 87 -116 87 -16 0 -44 -9 -61 -19z m119 -99 c23 -40
25 -148 3 -191 -23 -44 -53 -62 -82 -49 -76 35 -77 250 -1 286 28 13 55 -3 80
-46z"/>
<path d="M4701 4076 c-8 -9 -11 -64 -9 -172 l3 -159 25 0 c23 0 25 4 28 55 3
52 15 80 33 80 5 0 30 -32 56 -70 36 -55 51 -70 67 -68 33 5 31 35 -6 91 -19
29 -42 64 -52 79 l-17 26 51 57 c53 58 60 88 24 93 -14 2 -39 -17 -83 -63 -34
-36 -65 -65 -67 -65 -2 0 -4 27 -4 59 0 44 -4 60 -16 65 -21 8 -20 8 -33 -8z"/>
<path d="M867 3272 c-10 -10 -17 -28 -17 -39 0 -23 30 -53 53 -53 21 0 57 35
57 55 0 21 -36 55 -58 55 -11 0 -26 -8 -35 -18z"/>
</g>
</svg>
